<svg xmlns="http://www.w3.org/2000/svg" viewBox="0 0 596 133"><clipPath id="a"><path d="M.039 0h595.199v792H.039z"/></clipPath><g clip-path="url(#a)"><clipPath id="b"><path transform="translate(.037) scale(.48)" d="M0 0h1240v1650H0z"/></clipPath><g clip-path="url(#b)" fill="#2c2e35" fill-rule="evenodd"><path d="M125.269 60.889a23.85 23.85 0 010-.454c.01-2.089-.73.523-1.549-.285-.67-.656.045-1.487.096-2.329.607-.105 1.423-.017 2.413-.727 1.621-1.164-1.821-2.471.011-2.293 1.832.178 2.299 1.303 2.692 2.218.393.915-.73 1.86-.003 2.576.73.716 1.383-1.601 1.376.253-.01 1.856-.467 2.471-1.476 5.096-1.006 2.626-5.623 4.928-3.003 3.023 2.62-1.903.9-4.039 1.213-3.435.31.604-1.165-2.34-.638-4.06zm-7.797 2.748s-1.398-1.97-.794-3.36c.605-1.39.77.104 2.596-1.21 1.829-1.313-2.05-2.783.014-2.584 2.064.198 2.59 1.467 3.033 2.497.443 1.033-.823 2.098-.004 2.906.822.806 1.56-1.805 1.55.285-.008 2.09.219 2.741-1.146 5.888-.776 1.792-1.709 3.386-2.832 3.896-1.625.355-.935.173-.6-1.03 1.015-2.9-.88-3.42-.526-2.74.35.68-1.356-2.87-.76-4.808zm15.456-3.373c.587-1.595-.6-2.544.777-1.792 1.376.754 1.366 1.79 1.368 2.638 0 .85-1.196 1.215-.864 2.02.33.806 1.62-.792.992.66-.629 1.45-1.193 1.779-2.862 3.498-1.669 1.72-6.056 1.978-3.365 1.363 2.689-.615 2.056-2.863 2.1-2.285.043.577-.13-2.224.858-3.396zm22.243 36.03s5.556 1.418 14.772-3.1a81.233 81.233 0 013.939-1.788 100.763 100.763 0 014.625-2.338c1.125-.525 1.622-.442 1.799-.118.877-.304 1.781-.6 2.703-.889a94.618 94.618 0 014.311-2.167c1.661-.777 1.956-.227 1.858.47.447-.105.892-.208 1.343-.307 1.226-.673 3.604-1.948 5.816-2.983 2.869-1.34 1.661 1.271 1.412 1.768a55.462 55.462 0 011.78-.172c.927-.336 3.258-1.16 5.386-1.767 2.59-.74 1.05 1.412.88 1.64a41.81 41.81 0 011.921.143l-.227-.043s2.633-.337 4.937-.453c2.048-.104.758 1.138.443 1.417.367.1.733.206 1.095.319.238.022 2.028.19 3.586.451 1.375.23.515.837.166 1.045.453.22.894.446 1.316.68l-.462-.283s1.409.334 2.605.718c1.196.383-.09.824-.09.824l-.004-.002c.383.258.748.523 1.103.793.483.13 1.089.298 1.648.476 1.198.384-.09.823-.09.823.354.323.69.647 1.008.975.076-.015.12-.022.12-.022s2.896-.833 3.527-1.506c.62-.654-.832 1.836-2.932 2.295l.124.139c1.346-.11 4.138-.53 5.278-1.309 1.802-1.23-1.38 2.059-4.198 2.312l-.237.02.13.168c.105-.188 1.575.729 1.699.828.238.193-.465.203-.823.403.236.355.453.71.66 1.056.511.229 1.113.422 1.443.774.38.406-.386.242-.84.325.274.528.51 1.042.72 1.534.323.217.913.564 1.19.978.198.296-.385.188-.706.26.14.396.26.77.364 1.118.257.332.536.67.673.915.283.505.662.752.521 1.714-.142.964-.378 1.864-.17 2.623.208.758-.876-.919-1.161-2.148-.285-1.23-.187-1.403-.675-2.34a4.387 4.387 0 01-.265-.633 35.929 35.929 0 00-3.313-3.958c.017 3.642-2.137 7.62-1.402 5.046.46-1.61.02-4.744-.398-6.768-.136-.12-.275-.242-.418-.362-.064 2.793-2.355 5.364-1.792 4.322.615-1.146.444-5.38.442-5.404-3.189-2.402-7.21-4.336-11.959-4.456-4.171-.102-7.68.35-10.82 1.165-.295-.688-.602-1.121-.602-1.121s.122.517.25 1.213c-2.078.563-3.998 1.283-5.847 2.103-.326-.903-.752-1.5-.752-1.5s.18.767.334 1.688c-2.408 1.095-4.706 2.355-7.093 3.652-.16-1.69-1.103-3.022-1.103-3.022s.447 1.909.53 3.332a156.62 156.62 0 01-3.38 1.789c-1.562.8-3.384 1.22-5.332 1.368 2.228-3.335-.992-6.523-.992-6.523s1.065 2.498 1.223 3.876c.16 1.367-1.523 2.693-1.545 2.71-2.035.033-4.169-.188-6.252-.554 1.536-3.118-1.323-5.947-1.323-5.947s1.064 2.497 1.224 3.875c.08.707-.33 1.405-.75 1.915-6.855-1.335-12.95-4.075-12.95-4.075M86.237 27.864c-1.19-1.263-2.895-2.943-4.633-4.216-3.192-2.333-5.6-6.276-6.52-9.747-.916-3.472.713-6.924.713-6.924s-1.487 5.214.966 8.561c2.454 3.347 3.909 5.593 8.4 8.276 2.373 1.418 5.03 3.816 7.006 5.762-.02-.01-2.161-.967-3.166-1.327-1.01-.362-.612.797-.612.797zm0 0"/><path d="M103.974 55.403a4.383 4.383 0 00-.343-.302s-.57-1.17-1.314-.297c-.743.876-.71 1.658-.71 1.658s-.565-1.612-.498-2.578c.066-.966-.041-1.596-.742-.898-.7.695-.92 1.935-.92 1.935s-.726-1.077-.68-1.922c.05-.85.39-2.01-.4-1.365-.792.647-.775 1.925-.775 1.925s-.698-1.427-.396-2.731c.302-1.305-.793-1.159-1.87-.462-1.079.7-2.225 1.986-2.93 4.427-.703 2.443-.3 7.065.546 7.811.847.746 1.312 1.116 1.794.233.482-.881.447-2.044.447-2.044s.697.73.567 1.643c-.129.913.147 1.82.561 1.524.413-.294 1.13-2.214 1.13-2.214s.546 2.08.02 2.762c-.527.682.322.759-.04 1.661a1.388 1.388 0 01-.54.66h.002s-.317.3-.793.735c-.013.401-.11.979-.51 1.372-.675.666-2.003 1.152-2.003 1.152s.408-.456.764-.974c-.82.694-1.634 1.332-2.098 1.547-1.184.551-2.854 1.279-2.854 1.279s2.777-2.136 3.705-3.161c0 0-2.494.697-3.653.427-.804-.187.358-.182 1.609-.808-.518.025-.439-.088-.127-.27 0 0-1.14.233-2.09-.238-.607-.3.477-.326 1.653-.802-.173.026-.355.046-.55.065-2.08.197-2.55-.607-2.55-.607s2.061-.167 3.19-.488c-.032-.004-1.5-.152-2.235-.902-.745-.757.686.165 2.748.043-.332-.204-.944-.378-1.537-.631-1.024-.443-1.144-1.19-1.144-1.19s1.168.278 1.797.089c0 0-.629-.343-.71-.881-.065-.449.108.189 1.062.617-.025-.027-.67-.737-.623-1.49.032-.528-.01.117.6.674-.024-1.142.29-3.047-.05-5.72-.154-1.199-.897-2.652-2.29-2.665-1.903-.019-3.446.394-4.413-.158-.968-.553.324-.026.691-.858.368-.833.077.124-.888.069-.966-.052-1.628-.525-1.628-.525s.683.077.973-.285c.293-.362-.44.26-1.11-.755-.671-1.017-.326-.293.56-.346.886-.054.027.13-.396-1.151-.426-1.279-.175-.172.871-.015 1.045.16-.004.171-.493-1.235-.487-1.407-.294-1.649-.294-1.649s.39.418.89.642c.5.223-.194-.28-.157-1.393.04-1.116.277-1.347.277-1.347s-.061.833.276.956c.337.122.053-.952.504-1.515.454-.562-.159.33.846.578 1.003.25 1.78-.894 2.35-.88.572.014 2.015.415 2.448 1.019.055.075.115.146.18.212.67-.062 1.25-.01 1.838.742.746.958.542 4.524.86 4.877.32.352.793-1.695.424-3.38-.37-1.686-.229-2.483-1.733-3.089-1.505-.606-3.256-.697-2.91-1.802.347-1.104 1.216-2.598 2.273-3.18 1.06-.58 1.001-.926.78-1.867-.221-.941-2.295-2.95-7.343-5.664-5.05-2.717-11.13-4.1-19.27-9.917-8.144-5.818-8.997-15.636-8.997-15.636s1.794 9.026 12.808 15.53c.038-.026.161-.132.094-.283-.077-.176.272-.147.81.276.424.332 1.033.949 1.273 1.195l.137.07c.056-.057.144-.185.06-.335-.115-.208.317-.212 1.024.25.707.459 1.832 1.447 1.832 1.447s.262-.199.12-.457c-.145-.257.393-.263 1.27.309.863.562 2.232 1.76 2.275 1.796l.002.002-.04-.11s.344-.261.157-.599c-.186-.335.513-.343 1.657.403.936.61 2.325 1.789 2.801 2.202l.17.065c.063-.058.428-.427.16-.851-.294-.457.696-.529 2.38.424 1.677.948 4.385 3.04 4.402 3.054h.002c.133-.103.581-.499.326-1.046-.298-.64.984-.561 2.982.95 1.989 1.506 5.101 4.654 5.122 4.677v.002s.594-.137.55-.681c-.044-.544.864-.143 1.906 1.485 1.045 1.63 2.464 4.76 2.464 4.76a.351.351 0 01.131-.217c.638-.519.232-.802.232-.802l1.713 2.164a.357.357 0 01.09-.06c.744-.355.417-.726.417-.726l1.067 2.336a.458.458 0 01.104-.049c.782-.257.506-.667.506-.667l.847 2.741c.602-.18.415-.555.415-.555l.5 2.88a26.032 26.032 0 011.028 3.098s.742 1.515 1.513 1.972c.439.008 1.056-.14 1.564-.259.716-.167-.128.668.547.467.677-.2 1.211-1.265 1.211-1.265s.113.937-.018 2.007c-.094.756-.677 2.185-1.009 2.952a4.8 4.8 0 01-.229.514l-.002.005v.002A5.257 5.257 0 01111.853 59c-.9.811-3 2.23-3 2.23s1.284-2.377.488-3.108c0 0-2.15 1.549-4.196 1.898-2.048.347.313-.887-.6-2.903-.34-.75-.503-1.308-.57-1.713m-30.36-30.802l.03.013-.005-.015zM103.73 49.2s-1.336.336-2.139-.452c-.334-.324-.474-.579-.566-.853 0 0 .234-.998-.193-1.766-.415-.746-1.975-1.97-2.059-2.035l-.004-.004s1.939.07 2.777 1.31c.84 1.239.589 1.657 1.161 2.405.574.75 1.023 1.395 1.023 1.395m7.27 5.737s-.437 1.084-1 1.335c-.564.25.023-.789-.81-.255-.83.533-.528 1.033-.528 1.033s-.407-1.424.965-1.767zm-6.757-12.674l.075.058a.244.244 0 01.012-.06zm2.994 3.408l.043.075.103-.02zm0 0"/></g></g></svg>